<?xml version="1.0" standalone="no"?>
<!DOCTYPE svg PUBLIC "-//W3C//DTD SVG 20010904//EN"
 "http://www.w3.org/TR/2001/REC-SVG-20010904/DTD/svg10.dtd">
<svg version="1.0" xmlns="http://www.w3.org/2000/svg"
 width="512.000000pt" height="512.000000pt" viewBox="0 0 512.000000 512.000000"
 preserveAspectRatio="xMidYMid meet">
<metadata>
Created by potrace 1.14, written by Peter Selinger 2001-2017
</metadata>
<g transform="translate(0.000000,512.000000) scale(0.100000,-0.100000)"
fill="#000000" stroke="none">
<path d="M2379 5116 c-2 -2 -40 -6 -83 -10 -44 -4 -82 -8 -85 -10 -3 -2 -31
-7 -61 -11 -70 -8 -171 -30 -284 -62 -900 -248 -1611 -1003 -1809 -1918 -55
-250 -71 -597 -41 -845 105 -848 606 -1575 1356 -1968 377 -198 748 -288 1188
-290 214 0 284 7 524 54 125 25 378 102 474 145 502 225 893 559 1171 1001
156 248 293 589 336 837 3 19 7 37 9 40 2 3 7 29 11 56 4 28 9 61 11 75 26
179 26 556 0 705 -3 17 -8 44 -10 60 -3 17 -9 53 -15 80 -6 28 -13 61 -15 75
-13 66 -52 196 -90 301 l-42 116 48 53 c142 157 162 374 50 545 -57 87 -811
832 -878 867 -119 64 -269 70 -390 17 -45 -20 -131 -82 -150 -108 -10 -13 -18
-12 -70 8 -156 61 -384 129 -494 147 -69 11 -82 13 -195 30 -43 6 -460 15
-466 10z"/>
</g>
</svg>
